<svg width="60" height="60" viewBox="0 0 60 60" fill="none" xmlns="http://www.w3.org/2000/svg">
<path d="M24.7202 25.1699C23.0102 25.1699 21.6602 26.6699 21.6602 28.4999C21.6602 30.3299 23.0402 31.8299 24.7202 31.8299C26.4302 31.8299 27.7802 30.3299 27.7802 28.4999C27.8102 26.6699 26.4302 25.1699 24.7202 25.1699ZM35.6702 25.1699C33.9602 25.1699 32.6102 26.6699 32.6102 28.4999C32.6102 30.3299 33.9902 31.8299 35.6702 31.8299C37.3802 31.8299 38.7302 30.3299 38.7302 28.4999C38.7302 26.6699 37.3802 25.1699 35.6702 25.1699Z" fill="#7289DA"/>
<path d="M50.2501 0H10.0501C6.66015 0 3.90015 2.76 3.90015 6.18V46.74C3.90015 50.16 6.66015 52.92 10.0501 52.92H44.0701L42.4801 47.37L46.3201 50.94L49.9501 54.3L56.4002 60V6.18C56.4002 2.76 53.6401 0 50.2501 0ZM38.6701 39.18C38.6701 39.18 37.5901 37.89 36.6901 36.75C40.6201 35.64 42.1201 33.18 42.1201 33.18C40.8901 33.99 39.7201 34.56 38.6701 34.95C37.1701 35.58 35.7301 36 34.3201 36.24C31.4401 36.78 28.8001 36.63 26.5501 36.21C24.8401 35.88 23.3701 35.4 22.1401 34.92C21.4501 34.65 20.7001 34.32 19.9501 33.9C19.8601 33.84 19.7701 33.81 19.6801 33.75C19.6201 33.72 19.5901 33.69 19.5601 33.66C19.0201 33.36 18.7201 33.15 18.7201 33.15C18.7201 33.15 20.1601 35.55 23.9701 36.69C23.0701 37.83 21.9601 39.18 21.9601 39.18C15.3301 38.97 12.8101 34.62 12.8101 34.62C12.8101 24.96 17.1301 17.13 17.1301 17.13C21.4501 13.89 25.5601 13.98 25.5601 13.98L25.8601 14.34C20.4601 15.9 17.9701 18.27 17.9701 18.27C17.9701 18.27 18.6301 17.91 19.7401 17.4C22.9501 15.99 25.5001 15.6 26.5501 15.51C26.7301 15.48 26.8801 15.45 27.0601 15.45C28.8901 15.21 30.9601 15.15 33.1201 15.39C35.9701 15.72 39.0301 16.56 42.1501 18.27C42.1501 18.27 39.7802 16.02 34.6801 14.46L35.1001 13.98C35.1001 13.98 39.2102 13.89 43.5302 17.13C43.5302 17.13 47.8501 24.96 47.8501 34.62C47.8501 34.62 45.3001 38.97 38.6701 39.18Z" fill="#7289DA"/>
</svg>
