<svg width="60" height="60" viewBox="0 0 60 60" fill="none" xmlns="http://www.w3.org/2000/svg">
<path d="M30 59.0625C46.0508 59.0625 59.0625 46.0508 59.0625 30C59.0625 13.9492 46.0508 0.9375 30 0.9375C13.9492 0.9375 0.9375 13.9492 0.9375 30C0.9375 46.0508 13.9492 59.0625 30 59.0625Z" fill="#EA4C89"/>
<path fill-rule="evenodd" clip-rule="evenodd" d="M30 0C13.4382 0 0 13.4382 0 30C0 46.5619 13.4382 60 30 60C46.5293 60 60 46.5619 60 30C60 13.4382 46.5293 0 30 0ZM49.8156 13.8286C53.3947 18.1887 55.5424 23.7527 55.6074 29.7722C54.7614 29.6096 46.3014 27.885 37.7766 28.9588C37.5814 28.5358 37.4186 28.0802 37.2234 27.6248C36.7028 26.3884 36.1172 25.1194 35.5314 23.9154C44.9674 20.076 49.2624 14.5445 49.8156 13.8286ZM30 4.42517C36.5076 4.42517 42.462 6.86552 46.9849 10.8677C46.5292 11.5184 42.6572 16.692 33.5466 20.1084C29.3492 12.397 24.6964 6.0846 23.9805 5.10846C25.9001 4.65293 27.9176 4.42517 30 4.42517ZM19.0999 6.83297C19.7831 7.74403 24.3384 14.0889 28.6009 21.6377C16.6269 24.8265 6.05207 24.7614 4.91323 24.7614C6.57266 16.8221 11.9414 10.2169 19.0999 6.83297ZM4.36009 30.0326C4.36009 29.7722 4.36009 29.5119 4.36009 29.2517C5.46638 29.2841 17.8959 29.4469 30.6833 25.6074C31.4318 27.039 32.115 28.5032 32.7658 29.9674C32.4403 30.0651 32.0824 30.1628 31.7571 30.2603C18.5466 34.5227 11.5184 46.1713 10.9327 47.1474C6.8655 42.6247 4.36009 36.6053 4.36009 30.0326ZM30 55.6399C24.078 55.6399 18.6117 53.6226 14.2842 50.2386C14.7397 49.2951 19.9457 39.2734 34.3926 34.23C34.4576 34.1974 34.4902 34.1974 34.5553 34.1649C38.1669 43.5032 39.6313 51.3448 40.0217 53.5899C36.9306 54.924 33.5466 55.6399 30 55.6399ZM44.2841 51.2473C44.0239 49.6854 42.6572 42.2018 39.3058 32.9934C47.3428 31.7244 54.3709 33.807 55.2495 34.0999C54.1432 41.2256 50.0434 47.3752 44.2841 51.2473Z" fill="#C32361"/>
</svg>
