<svg width="60" height="60" viewBox="0 0 60 60" fill="none" xmlns="http://www.w3.org/2000/svg">
<g clip-path="url(#clip0_26_627)">
<path d="M20.0002 60C25.5202 60 30.0003 55.52 30.0003 50V39.9999H20.0002C14.4801 39.9999 10 44.48 10 50C10 55.52 14.4801 60 20.0002 60Z" fill="#0ACF83"/>
<path d="M10 30C10 24.48 14.4801 19.9999 20.0002 19.9999H30.0003V39.9998H20.0002C14.4801 40 10 35.52 10 30Z" fill="#A259FF"/>
<path d="M10 10.0001C10 4.48008 14.4801 0 20.0002 0H30.0003V19.9999H20.0002C14.4801 19.9999 10 15.5201 10 10.0001Z" fill="#F24E1E"/>
<path d="M30 0H40.0002C45.5202 0 50.0003 4.48008 50.0003 10.0001C50.0003 15.5201 45.5202 19.9999 40.0002 19.9999H30V0Z" fill="#FF7262"/>
<path d="M50.0003 30C50.0003 35.52 45.5202 40 40.0002 40C34.4801 40 30 35.52 30 30C30 24.48 34.4801 19.9999 40.0002 19.9999C45.5202 19.9999 50.0003 24.48 50.0003 30Z" fill="#1ABCFE"/>
</g>
<defs>
<clipPath id="clip0_26_627">
<rect width="60" height="60" fill="white"/>
</clipPath>
</defs>
</svg>
