<svg width="60" height="60" viewBox="0 0 60 60" fill="none" xmlns="http://www.w3.org/2000/svg">
<g clip-path="url(#clip0_26_660)">
<path d="M30 60C46.5685 60 60 46.5685 60 30C60 13.4315 46.5685 0 30 0C13.4315 0 0 13.4315 0 30C0 46.5685 13.4315 60 30 60Z" fill="#FF4500"/>
<path d="M50.0006 30C50.0006 27.5789 48.0357 25.614 45.6147 25.614C44.4217 25.614 43.369 26.0701 42.5971 26.8421C39.6147 24.7017 35.4743 23.2982 30.9129 23.1228L32.9129 13.7544L39.4041 15.1228C39.4743 16.7719 40.8427 18.1052 42.5269 18.1052C44.2462 18.1052 45.6497 16.7017 45.6497 14.9824C45.6497 13.2631 44.2462 11.8596 42.5269 11.8596C41.2989 11.8596 40.2462 12.5614 39.755 13.614L32.4919 12.0701C32.2813 12.0351 32.0708 12.0701 31.8954 12.1754C31.7199 12.2807 31.6147 12.4561 31.5445 12.6666L29.334 23.1228C24.6673 23.2631 20.4919 24.6315 17.4743 26.8421C16.7024 26.1052 15.6147 25.614 14.4568 25.614C12.0357 25.614 10.0708 27.5789 10.0708 30C10.0708 31.7894 11.1234 33.2982 12.6673 34C12.5971 34.421 12.562 34.8772 12.562 35.3333C12.562 42.0701 20.3866 47.5087 30.0708 47.5087C39.755 47.5087 47.5796 42.0701 47.5796 35.3333C47.5796 34.8772 47.5445 34.4561 47.4743 34.0351C48.9129 33.3333 50.0006 31.7894 50.0006 30ZM20.0006 33.1228C20.0006 31.4035 21.4041 30 23.1234 30C24.8427 30 26.2462 31.4035 26.2462 33.1228C26.2462 34.8421 24.8427 36.2456 23.1234 36.2456C21.4041 36.2456 20.0006 34.8421 20.0006 33.1228ZM37.4392 41.3684C35.2989 43.5087 31.2287 43.6491 30.0357 43.6491C28.8427 43.6491 24.7375 43.4737 22.6322 41.3684C22.3164 41.0526 22.3164 40.5263 22.6322 40.2105C22.948 39.8947 23.4743 39.8947 23.7901 40.2105C25.1234 41.5438 28.0006 42.0351 30.0708 42.0351C32.141 42.0351 34.9831 41.5438 36.3515 40.2105C36.6673 39.8947 37.1936 39.8947 37.5094 40.2105C37.755 40.5614 37.755 41.0526 37.4392 41.3684ZM36.8778 36.2456C35.1585 36.2456 33.755 34.8421 33.755 33.1228C33.755 31.4035 35.1585 30 36.8778 30C38.5971 30 40.0006 31.4035 40.0006 33.1228C40.0006 34.8421 38.5971 36.2456 36.8778 36.2456Z" fill="white"/>
</g>
<defs>
<clipPath id="clip0_26_660">
<rect width="60" height="60" fill="white"/>
</clipPath>
</defs>
</svg>
